<?xml version="1.0" encoding="utf-8"?>
<!-- Generator: Adobe Illustrator 16.0.0, SVG Export Plug-In . SVG Version: 6.00 Build 0)  -->
<!DOCTYPE svg PUBLIC "-//W3C//DTD SVG 1.1//EN" "http://www.w3.org/Graphics/SVG/1.1/DTD/svg11.dtd">
<svg version="1.1" id="Layer_1" xmlns="http://www.w3.org/2000/svg" xmlns:xlink="http://www.w3.org/1999/xlink" x="0px" y="0px"
	 width="255.121px" height="141.73px" viewBox="0 0 255.121 141.73" enable-background="new 0 0 255.121 141.73"
	 xml:space="preserve">
<g>
	<g>
		<g>
			<path fill="#193554" d="M189.318,23.338V7.399l5.465,4.099l2.731-3.644L187.041,0l-10.473,7.855l2.732,3.643l5.464-4.098v15.938
				c0,6.277-5.106,11.384-11.384,11.384h-9.107c-7.203,0-13.299,4.554-15.266,11.384h-3.261l-0.084,4.554h2.673v7.097
				c-1.118-0.159-2.252-0.266-3.416-0.266c-5.295,0-10.387,1.769-14.566,5.024c-2.989-3.18-7.177-5.024-11.616-5.024
				c-1.56,0-3.089,0.248-4.554,0.688V43.829c0-7.534-6.126-13.661-13.66-13.661h-2.277v-4.553h-4.554v4.553h-6.83
				c-7.534,0-13.661,6.127-13.661,13.661v4.554c0,2.511-2.042,4.554-4.554,4.554h-4.553l4.098-5.465L64.55,44.74l-7.855,10.472
				l7.855,10.474l3.643-2.732l-4.098-5.464h4.553c5.023,0,9.107-4.085,9.107-9.107v-4.554c0-5.022,4.085-9.107,9.107-9.107h13.661
				c5.022,0,9.107,4.085,9.107,9.107V60.38c-0.99,0.692-1.913,1.487-2.732,2.397c-1.714-0.489-3.472-0.735-5.236-0.735
				c-9.768,0-17.875,7.223-19.155,16.732c-8.124,2.402-13.859,9.95-13.859,18.558c0,4.03,1.268,7.967,3.595,11.231
				c-0.876,2.238-1.318,4.581-1.318,6.983c0,10.671,8.682,19.353,19.353,19.353c0.863,0,1.707-0.077,2.541-0.187
				c0.157-0.021,0.314-0.048,0.471-0.073c0.843-0.132,1.671-0.307,2.478-0.546c3.13,2.021,6.716,3.083,10.448,3.083
				c4.174,0,8.149-1.314,11.448-3.748c3.588,5.183,9.446,8.302,15.874,8.302c5.97,0,11.469-2.691,15.125-7.302
				c2.993,1.806,6.379,2.748,9.92,2.748c10.671,0,19.352-8.681,19.352-19.353c0-2.304-0.406-4.554-1.211-6.707
				c3.682-3.629,5.766-8.563,5.766-13.784c0-1.161-0.114-2.302-0.314-3.415h0.314v-4.554h-1.74
				c-2.281-5.014-6.639-8.955-12.085-10.576c-1.001-9.332-7.283-16.943-15.772-19.926v-8.203c0-6.277,5.105-11.385,11.383-11.385
				h9.107C182.167,39.274,189.318,32.123,189.318,23.338z M164.234,80.682l0.064,1.797l1.762,0.353
				c4.096,0.822,7.491,3.338,9.595,6.705v4.381h1.823c0.27,1.106,0.455,2.24,0.455,3.415c0,3.615-1.322,7.035-3.663,9.713
				c-3.274-4.509-8.458-7.266-14.403-7.659l-0.298,4.26c7.563,0.499,13.511,5.954,13.784,14.692
				c-0.273,7.921-6.785,14.284-14.771,14.284c-3.315,0-6.46-1.086-9.092-3.14l-0.908-0.71c-2.805-2.555-4.526-6.098-4.783-9.964
				l-4.545,0.303c0.32,4.82,2.406,9.249,5.787,12.548c-2.795,3.485-6.974,5.517-11.504,5.517c-5.654,0-10.733-3.16-13.251-8.249
				l-1.402-2.83l-2.242,2.229c-2.792,2.769-6.494,4.296-10.426,4.296c-1.801,0-3.545-0.359-5.2-0.988
				c5.191-3.475,8.615-9.387,8.615-16.088c0-0.484-0.063-0.956-0.098-1.435c3.622-0.628,7.008-2.268,9.756-4.787l-3.078-3.358
				c-2.122,1.944-4.736,3.201-7.536,3.67c-1.523-4.754-4.82-8.818-9.392-11.227l-2.122,4.029c4.884,2.575,7.917,7.596,7.917,13.107
				c0,6.389-4.078,11.828-9.761,13.897c-0.801,0.29-1.614,0.508-2.432,0.658c-0.055,0.009-0.109,0.016-0.164,0.025
				c-0.812,0.139-1.628,0.218-2.443,0.218c-8.16,0-14.799-6.639-14.799-14.799c0-2.19,0.485-4.318,1.441-6.334l0.624-1.312
				l-0.929-1.12c-2.202-2.65-3.413-6.004-3.413-9.448c0-7.026,4.993-13.128,11.872-14.508l1.746-0.349l0.082-1.776
				c0.232-4.977,2.887-9.271,6.792-11.773v4.5h4.554v-6.419c1.097-0.26,2.238-0.412,3.415-0.412c1.76,0,3.515,0.326,5.209,0.966
				l1.628,0.614l1.02-1.407c0.034-0.048,0.075-0.089,0.112-0.137v11.348h4.553V63.025c1.423-0.628,2.967-0.983,4.554-0.983
				c3.151,0,6.113,1.314,8.245,3.563c-3.816,4.342-6.537,9.963-6.537,15.789c0,13.183,11.953,23.906,23.337,23.906v-4.554
				c-9.107,0-18.784-8.681-18.784-19.353c0-4.751,2.049-9.337,5.182-12.863l1.305-1.109c3.634-3.47,8.426-5.38,13.364-5.38
				c1.168,0,2.377,0.116,3.485,0.314v8.793c0,6.277-5.106,11.384-11.384,11.384h-2.276v4.554h2.276
				c8.786,0,15.938-7.151,15.938-15.938v-7.386C159.38,66.689,163.957,73.078,164.234,80.682z"/>
			<rect x="161.996" y="89.364" fill="#193554" width="6.831" height="4.554"/>
			<rect x="173.38" y="46.105" fill="#193554" width="6.83" height="4.554"/>
			<path fill="#193554" d="M138.06,48.493l2.295-3.932c-1.644-0.961-3.037-2.327-4.029-3.955l-3.887,2.37
				C133.824,45.247,135.765,47.154,138.06,48.493z"/>
			<path fill="#193554" d="M130.121,34.72L130.121,34.72c0,0.237,0.006,0.474,0.016,0.711l4.55-0.505l-0.012-7.035h-4.554V34.72z"/>
			<rect x="130.121" y="14.23" fill="#193554" width="4.555" height="6.83"/>
			<path fill="#193554" d="M187.935,87.966l2.193,3.989c2.326-1.279,4.318-3.138,5.762-5.371l-3.83-2.468
				C191.03,85.714,189.602,87.046,187.935,87.966z"/>
			<path fill="#193554" d="M193.872,77.979c0,0.27-0.009,0.535-0.03,0.804l4.545,0.317c0.025-0.371,0.039-0.745,0.039-1.121V71.15
				h-4.554V77.979z"/>
			<rect x="159.719" y="46.105" fill="#193554" width="6.831" height="4.554"/>
			<path fill="#193554" d="M197.874,57.898l-4.394,1.187c0.26,0.963,0.392,1.958,0.392,2.958v2.276h4.554v-2.276
				C198.425,60.642,198.241,59.246,197.874,57.898z"/>
			<path fill="#193554" d="M193.994,51.037c-1.844-1.929-4.152-3.375-6.68-4.183l-1.387,4.335c1.804,0.578,3.457,1.614,4.777,2.994
				L193.994,51.037z"/>
			<polygon fill="#193554" points="130.121,7.399 134.675,7.399 140.139,11.498 142.871,7.855 132.398,0 121.925,7.855 
				124.657,11.498 			"/>
			<rect x="93.693" y="11.953" fill="#193554" width="4.554" height="6.831"/>
			<rect x="93.693" y="52.935" fill="#193554" width="4.554" height="6.83"/>
			<rect x="93.693" y="39.274" fill="#193554" width="4.554" height="6.831"/>
			<rect x="93.693" y="80.257" fill="#193554" width="4.554" height="6.83"/>
			<polygon fill="#193554" points="95.97,5.692 103.71,11.498 106.443,7.855 95.97,0 85.497,7.855 88.229,11.498 			"/>
		</g>
	</g>
</g>
</svg>
