<?xml version="1.0" encoding="utf-8"?>
<!-- Generator: Adobe Illustrator 16.0.0, SVG Export Plug-In . SVG Version: 6.00 Build 0)  -->
<!DOCTYPE svg PUBLIC "-//W3C//DTD SVG 1.1//EN" "http://www.w3.org/Graphics/SVG/1.1/DTD/svg11.dtd">
<svg version="1.1" id="Layer_1" xmlns="http://www.w3.org/2000/svg" xmlns:xlink="http://www.w3.org/1999/xlink" x="0px" y="0px"
	 width="255.121px" height="141.73px" viewBox="0 0 255.121 141.73" enable-background="new 0 0 255.121 141.73"
	 xml:space="preserve">
<g>
	<g>
		<path fill="#193554" d="M175.216,43.575l-26.444-19.202c-0.978-0.71-2.347-0.492-3.058,0.485
			c-0.709,0.978-0.492,2.347,0.486,3.057l26.444,19.201c0.388,0.282,0.838,0.418,1.284,0.418c0.676,0,1.344-0.312,1.772-0.902
			C176.412,45.653,176.195,44.285,175.216,43.575z"/>
	</g>
</g>
<g>
	<g>
		<path fill="#193554" d="M110.081,33.072c-0.189-1.194-1.311-2.01-2.504-1.819L75.3,36.375c-1.193,0.189-2.008,1.312-1.818,2.505
			c0.171,1.077,1.102,1.846,2.159,1.846c0.114,0,0.23-0.009,0.346-0.027l32.277-5.122C109.457,35.386,110.271,34.265,110.081,33.072
			z"/>
	</g>
</g>
<g>
	<g>
		<path fill="#193554" d="M197.522,36.693l-49.111-35.66c-0.47-0.341-1.055-0.482-1.629-0.391c-0.573,0.091-1.087,0.406-1.429,0.875
			l-21.417,29.497l-2.949-18.582c-0.091-0.573-0.406-1.087-0.875-1.428c-0.47-0.342-1.056-0.481-1.629-0.391l-59.942,9.513
			c-1.194,0.188-2.008,1.311-1.818,2.504l11.707,73.775c0.091,0.573,0.406,1.086,0.875,1.428c0.376,0.273,0.827,0.417,1.286,0.417
			c0.114,0,0.229-0.009,0.343-0.026l13.773-2.187v23.481c0,1.209,0.98,2.188,2.188,2.188h60.692c1.209,0,2.189-0.979,2.189-2.188
			v-6.171c1.501-0.862,2.919-1.857,4.236-2.983l5.453,5.453l-1.754,1.754c-0.854,0.854-0.854,2.24,0,3.095l19.807,19.808
			c0.428,0.427,0.988,0.641,1.549,0.641c0.56,0,1.119-0.214,1.547-0.641l6.604-6.603c0.41-0.41,0.641-0.968,0.641-1.548
			s-0.23-1.137-0.641-1.547l-19.809-19.808c-0.41-0.411-0.967-0.642-1.547-0.642c-0.581,0-1.137,0.23-1.549,0.642l-1.753,1.753
			l-5.453-5.452c4.319-5.042,6.675-11.388,6.675-18.097c0-0.718-0.03-1.445-0.086-2.171l34.311-47.254
			C198.718,38.771,198.5,37.403,197.522,36.693z M165.862,115.612l16.713,16.713l-3.508,3.507l-16.712-16.712L165.862,115.612z
			 M84.708,44.821v8.969l-6.48,1.028c-1.193,0.189-2.007,1.312-1.818,2.505c0.171,1.077,1.102,1.846,2.159,1.846
			c0.114,0,0.23-0.009,0.346-0.027l5.794-0.919v14.477l-3.554,0.563c-1.194,0.189-2.008,1.311-1.818,2.504
			c0.171,1.078,1.101,1.846,2.159,1.846c0.114,0,0.229-0.009,0.346-0.027l2.868-0.454v14.477l-12.299,1.951L61.388,24.106
			l55.62-8.826l3.292,20.743l-4.799,6.609H86.896C85.687,42.633,84.708,43.612,84.708,44.821z M145.4,117.332H89.084V93.475V74.567
			V55.659V47.01h27.528c0,0,0.001,0,0.001,0c0.001,0,0.001,0,0.002,0h7.295h17.511c0,0,0,0,0.002,0c0,0,0.001,0,0.002,0h3.974v2.286
			v13.669c-3.024-1.1-6.201-1.657-9.483-1.657c-0.611,0-1.22,0.022-1.825,0.062c-0.163-0.039-0.333-0.062-0.509-0.062h-32.68
			c-1.208,0-2.188,0.979-2.188,2.188c0,1.208,0.98,2.188,2.188,2.188h20.019c-2.365,1.512-4.515,3.389-6.365,5.595
			c-2.182,2.603-3.841,5.524-4.948,8.702h-8.706c-1.209,0-2.189,0.98-2.189,2.189c0,1.208,0.98,2.188,2.189,2.188h7.567
			c-0.278,1.587-0.418,3.197-0.418,4.814c0,3.284,0.557,6.461,1.655,9.483h-8.804c-1.208,0-2.188,0.979-2.188,2.188
			c0,1.208,0.98,2.188,2.188,2.188h10.839c4.969,8.672,14.11,14.006,24.176,14.006c3.284,0,6.461-0.557,9.483-1.655V117.332
			L145.4,117.332z M152.526,105.783C152.525,105.783,152.525,105.783,152.526,105.783c-1.747,1.747-3.743,3.199-5.935,4.319
			c-3.322,1.699-6.914,2.561-10.675,2.561c-8.869,0-16.889-4.91-20.929-12.813c0-0.001,0-0.002,0-0.002
			c-1.698-3.323-2.56-6.914-2.56-10.674c0-2.169,0.299-4.325,0.889-6.407c0.906-3.2,2.452-6.119,4.594-8.675
			c4.48-5.343,11.043-8.407,18.006-8.407c3.757,0,7.349,0.862,10.675,2.564c7.086,3.623,11.824,10.49,12.676,18.369
			c0,0.001,0,0.003,0,0.005c0.092,0.851,0.139,1.709,0.139,2.551C159.406,95.448,156.962,101.346,152.526,105.783z M162.589,81.079
			c-2.039-6.752-6.584-12.506-12.812-16.077V53.59l11.896,8.639c0.388,0.281,0.838,0.417,1.283,0.417
			c0.677,0,1.344-0.312,1.773-0.902c0.71-0.979,0.492-2.347-0.486-3.057l-14.467-10.505v-3.359c0-1.209-0.98-2.188-2.189-2.188
			h-5.451l-4.336-3.149c-0.979-0.71-2.348-0.493-3.058,0.485c-0.595,0.82-0.537,1.913,0.073,2.664H123.91h-3.001l3.464-4.771
			c0,0,0,0,0-0.001L147.61,5.86l45.569,33.089L162.589,81.079z"/>
	</g>
</g>
<g>
	<g>
		<path fill="#193554" d="M135.917,70.645c-10.217,0-18.529,8.312-18.529,18.528s8.312,18.529,18.529,18.529
			s18.528-8.312,18.528-18.529S146.133,70.645,135.917,70.645z M135.917,103.326c-7.804,0-14.152-6.349-14.152-14.152
			s6.348-14.151,14.152-14.151s14.151,6.349,14.151,14.151C150.068,96.977,143.72,103.326,135.917,103.326z"/>
	</g>
</g>
<g>
	<g>
		<path fill="#193554" d="M142.132,88.794c-0.854-0.854-2.24-0.854-3.096,0l-5.835,5.836c-0.854,0.854-0.854,2.24,0,3.095
			c0.427,0.427,0.987,0.641,1.548,0.641c0.56,0,1.12-0.214,1.547-0.641l5.836-5.836C142.988,91.033,142.988,89.647,142.132,88.794z"
			/>
	</g>
</g>
<g>
	<g>
		<path fill="#193554" d="M139.798,79.456c-0.855-0.854-2.24-0.854-3.096,0l-6.419,6.42c-0.854,0.854-0.854,2.24,0,3.095
			c0.428,0.427,0.987,0.641,1.548,0.641s1.12-0.213,1.548-0.641l6.419-6.42C140.654,81.696,140.654,80.31,139.798,79.456z"/>
	</g>
</g>
</svg>
