<?xml version="1.0" encoding="utf-8"?>
<!-- Generator: Adobe Illustrator 16.0.0, SVG Export Plug-In . SVG Version: 6.00 Build 0)  -->
<!DOCTYPE svg PUBLIC "-//W3C//DTD SVG 1.1//EN" "http://www.w3.org/Graphics/SVG/1.1/DTD/svg11.dtd">
<svg version="1.1" id="Layer_1" xmlns="http://www.w3.org/2000/svg" xmlns:xlink="http://www.w3.org/1999/xlink" x="0px" y="0px"
	 width="255.121px" height="141.73px" viewBox="0 0 255.121 141.73" enable-background="new 0 0 255.121 141.73"
	 xml:space="preserve">
<g>
	<g>
		<path fill="#014B73" d="M196.494,5.412c-4.065-4.065-12.22-1.746-25.662,7.301c-11.42,7.687-25.118,19.327-38.57,32.78
			c-19.944,19.943-35.107,39.524-40.156,51.614c-0.831-0.301-1.693-0.542-2.582-0.718c-5.224-1.033-10.898,0.288-15.567,3.623
			c-6.701,4.785-8.476,11.618-8.733,12.77c-1.411,5.269-4.082,10.295-7.729,14.541c-1.173,1.365-1.039,3.419,0.302,4.62
			c4.686,4.199,10.68,6.306,16.914,6.306c6.009,0,12.241-1.957,17.737-5.882c2.578-1.841,4.529-3.876,4.907-4.278
			c4.67-5.02,6.654-11.6,5.67-17.612c11.861-4.253,32.541-19.981,53.39-40.83c13.452-13.453,25.094-27.151,32.779-38.571
			C198.24,17.632,200.56,9.477,196.494,5.412z M92.513,123.575c-0.178,0.189-1.798,1.896-3.911,3.405
			c-7.677,5.481-17.075,6.115-23.902,1.895c3.197-4.383,5.573-9.323,6.938-14.464v-0.001c0.015-0.058,0.029-0.115,0.041-0.174
			c0.012-0.053,1.161-5.295,6.123-8.838c3.192-2.28,6.997-3.197,10.439-2.517c2.839,0.562,5.225,2.182,6.72,4.562
			C97.894,112.116,96.862,118.901,92.513,123.575z M100.769,104.266c-0.068-0.113-1.071-2.15-2.941-3.665
			c1.611-4.307,5.079-10.127,9.912-16.811l10.368,10.368C110.814,99.409,104.837,102.832,100.769,104.266z M123.462,90.155
			l-11.709-11.71c2.023-2.604,4.213-5.303,6.546-8.062l13.233,13.233C128.732,85.981,126.035,88.164,123.462,90.155z
			 M182.691,28.862c-7.454,10.773-18.448,23.595-30.957,36.104c-5.252,5.252-10.344,10.029-15.182,14.31L122.64,65.363
			c4.412-4.991,9.223-10.114,14.301-15.19c12.508-12.509,25.33-23.503,36.103-30.958c13.265-9.178,17.841-9.192,18.72-9.072
			C191.884,11.021,191.869,15.599,182.691,28.862z"/>
	</g>
</g>
<g>
	<g>
		<path fill="#014B73" d="M89.707,114.635c-1.601-0.881-3.613-0.298-4.494,1.304c-0.089,0.162-0.197,0.313-0.321,0.45
			c-0.248,0.257-1.061,1.043-1.906,1.647c-1.281,0.915-2.665,1.57-4.11,1.949c-1.768,0.462-2.826,2.271-2.364,4.038
			c0.389,1.487,1.73,2.473,3.199,2.473c0.277,0,0.559-0.035,0.84-0.108c2.228-0.583,4.342-1.581,6.282-2.966
			c1.246-0.89,2.898-2.518,2.91-2.53c0.492-0.533,0.918-1.127,1.269-1.763C91.892,117.528,91.308,115.515,89.707,114.635z"/>
	</g>
</g>
</svg>
